<?xml version="1.0" standalone="no"?><!DOCTYPE svg PUBLIC "-//W3C//DTD SVG 1.1//EN" "http://www.w3.org/Graphics/SVG/1.1/DTD/svg11.dtd"><svg t="1630554047071" class="icon" viewBox="0 0 1024 1024" version="1.1" xmlns="http://www.w3.org/2000/svg" p-id="2329" width="16" height="16" xmlns:xlink="http://www.w3.org/1999/xlink"><defs><style type="text/css"></style></defs><path d="M916.88 343.06c-21.86-51.68-53.15-98.09-93-137.94-39.85-39.85-86.26-71.13-137.94-93C632.42 89.48 575.57 78 517 78s-115.42 11.48-168.94 34.12c-51.68 21.86-98.09 53.15-137.94 93-39.85 39.85-71.13 86.26-93 137.94C94.48 396.58 83 453.43 83 512s11.48 115.42 34.12 168.94c21.86 51.68 53.15 98.09 93 137.94 39.85 39.85 86.26 71.13 137.94 93C401.58 934.52 458.43 946 517 946s115.42-11.48 168.94-34.12c51.68-21.86 98.09-53.15 137.94-93 39.85-39.85 71.13-86.26 93-137.94C939.52 627.42 951 570.57 951 512s-11.48-115.42-34.12-168.94zM517 876c-200.71 0-364-163.29-364-364s163.29-364 364-364 364 163.29 364 364-163.29 364-364 364z" p-id="2330" fill="#ced6e0"></path><path d="M671.14 358.86c-7.81-7.81-20.47-7.81-28.29 0L515.5 486.22 388.14 358.86c-7.81-7.81-20.47-7.81-28.28 0s-7.81 20.47 0 28.28L487.22 514.5 359.86 641.86c-7.81 7.81-7.81 20.47 0 28.29 3.91 3.91 9.02 5.86 14.14 5.86s10.24-1.95 14.14-5.86L515.5 542.78l127.36 127.36c3.91 3.91 9.02 5.86 14.14 5.86s10.24-1.95 14.14-5.86c7.81-7.81 7.81-20.47 0-28.29L543.78 514.5l127.36-127.36c7.81-7.81 7.81-20.47 0-28.28z" p-id="2331" fill="#ced6e0"></path></svg>